<svg width="483.3" height="483.3" xmlns="http://www.w3.org/2000/svg">

 <g>
  <title>background</title>
  <rect fill="none" id="canvas_background" height="402" width="582" y="-1" x="-1"/>
 </g>
 <g>
  <title>Layer 1</title>
  <g id="svg_1">
   <g id="svg_2">
    <path fill="#444452" id="svg_3" d="m424.299988,57.75l-365.199989,0c-32.599998,0 -59.099998,26.5 -59.099998,59.099998l0,249.600014c0,32.599976 26.5,59.099976 59.099998,59.099976l365.100014,0c32.599976,0 59.099976,-26.5 59.099976,-59.099976l0,-249.500015c0.100006,-32.599998 -26.399994,-59.199997 -59,-59.199997zm32.100006,308.700012c0,17.700012 -14.399994,32.100006 -32.100006,32.100006l-365.199989,0c-17.699997,0 -32.099998,-14.399994 -32.099998,-32.100006l0,-249.5c0,-17.700005 14.400002,-32.099998 32.099998,-32.099998l365.100014,0c17.700012,0 32.099976,14.399994 32.099976,32.099998l0,249.5l0.100006,0z"/>
    <path fill="#444452" id="svg_4" d="m304.799988,238.550003l118.199982,-106c5.5,-5 6,-13.5 1,-19.100006c-5,-5.5 -13.5,-6 -19.099976,-1l-163.000015,146.300003l-31.799988,-28.399994c-0.100006,-0.099991 -0.199997,-0.199997 -0.199997,-0.300003c-0.699997,-0.699997 -1.400009,-1.299988 -2.199997,-1.899994l-129.399994,-115.800011c-5.600006,-5 -14.100006,-4.5 -19.100002,1.099998c-5,5.600006 -4.5,14.100006 1.099998,19.100006l119.599995,106.899994l-119.099995,111.500015c-5.399998,5.100006 -5.700001,13.600006 -0.599998,19.100006c2.700001,2.799988 6.299999,4.299988 9.899998,4.299988c3.300003,0 6.599998,-1.199982 9.200005,-3.600006l120.899994,-113.099976l32.800003,29.299988c2.600006,2.299988 5.800003,3.399994 9,3.399994c3.199997,0 6.5,-1.199982 9,-3.5l33.700012,-30.199982l120.199982,114.199982c2.600006,2.5 6,3.700012 9.300018,3.700012c3.599976,0 7.099976,-1.399994 9.799988,-4.200012c5.100006,-5.399994 4.899994,-14 -0.5,-19.100006l-118.700012,-112.699997z"/>
   </g>
  </g>
  <g id="svg_5"/>
  <g id="svg_6"/>
  <g id="svg_7"/>
  <g id="svg_8"/>
  <g id="svg_9"/>
  <g id="svg_10"/>
  <g id="svg_11"/>
  <g id="svg_12"/>
  <g id="svg_13"/>
  <g id="svg_14"/>
  <g id="svg_15"/>
  <g id="svg_16"/>
  <g id="svg_17"/>
  <g id="svg_18"/>
  <g id="svg_19"/>
 </g>
</svg>