<svg width="256" height="256" xmlns="http://www.w3.org/2000/svg" preserveAspectRatio="xMidYMid">

 <g>
  <title>background</title>
  <rect fill="none" id="canvas_background" height="402" width="582" y="-1" x="-1"/>
 </g>
 <g>
  <title>Layer 1</title>
  <g id="svg_1">
   <path id="svg_2" fill="#444452" d="m127.999748,23.06353c34.177635,0 38.225639,0.130074 51.722725,0.745886c12.479874,0.569576 19.257385,2.654806 23.768265,4.407232c5.974197,2.322002 10.238663,5.09621 14.717529,9.575085c4.478867,4.478874 7.253082,8.743328 9.57457,14.717529c1.752945,4.510883 3.838165,11.288387 4.407745,23.767754c0.615814,13.497589 0.74588,17.545601 0.74588,51.723244c0,34.177628 -0.130066,38.225647 -0.74588,51.722717c-0.56958,12.479889 -2.6548,19.257385 -4.407745,23.768265c-2.321487,5.974197 -5.095703,10.238663 -9.57457,14.717529c-4.478867,4.478882 -8.743332,7.253082 -14.717529,9.574585c-4.51088,1.75293 -11.288391,3.838165 -23.768265,4.40773c-13.495041,0.615814 -17.54306,0.745895 -51.722725,0.745895c-34.179672,0 -38.227684,-0.130081 -51.722733,-0.745895c-12.479874,-0.569565 -19.257378,-2.6548 -23.767754,-4.40773c-5.974709,-2.321503 -10.239166,-5.095703 -14.718037,-9.574585c-4.478874,-4.478867 -7.253084,-8.743332 -9.574577,-14.717529c-1.752934,-4.51088 -3.838163,-11.288376 -4.40774,-23.767746c-0.615814,-13.497589 -0.745886,-17.545609 -0.745886,-51.723236c0,-34.177643 0.130072,-38.225655 0.745886,-51.722733c0.569576,-12.479877 2.654806,-19.257381 4.40774,-23.768265c2.321493,-5.974201 5.095703,-10.238655 9.574577,-14.717529c4.47887,-4.478874 8.743328,-7.253082 14.718037,-9.575085c4.510376,-1.752426 11.28788,-3.837656 23.767242,-4.407232c13.497597,-0.615812 17.545601,-0.745886 51.723244,-0.745886m0,-23.06353c-34.76297,0 -39.121422,0.147348 -52.773987,0.770275c-13.624615,0.62191 -22.928883,2.785386 -31.071133,5.949813c-8.417133,3.271128 -15.555384,7.647873 -22.67128,14.763768c-7.115895,7.115896 -11.492641,14.254147 -14.763769,22.67128c-3.164427,8.14225 -5.327903,17.446522 -5.949813,31.071136c-0.622927,13.652054 -0.769767,18.011017 -0.769767,52.773987c0,34.762955 0.14684,39.121918 0.769767,52.773972c0.62191,13.624619 2.785386,22.928894 5.949813,31.071136c3.271127,8.416626 7.647873,15.555389 14.763769,22.67128c7.115896,7.115906 14.254147,11.492645 22.67128,14.763779c8.14225,3.164413 17.446518,5.327896 31.071133,5.949814c13.652565,0.622925 18.011017,0.76976 52.773987,0.76976c34.762962,0 39.121925,-0.146835 52.773979,-0.76976c13.624619,-0.621918 22.928879,-2.7854 31.071136,-5.949814c8.41713,-3.271133 15.555389,-7.647873 22.67128,-14.763779c7.115891,-7.115891 11.492645,-14.25415 14.763763,-22.67128c3.164429,-8.142242 5.327911,-17.446518 5.949814,-31.071136c0.622925,-13.652054 0.770279,-18.011017 0.770279,-52.773972c0,-34.76297 -0.147354,-39.121933 -0.770279,-52.773987c-0.621902,-13.624615 -2.785385,-22.928886 -5.949814,-31.071136c-3.271118,-8.417133 -7.647873,-15.555384 -14.763763,-22.67128c-7.115891,-7.115895 -14.25415,-11.49264 -22.67128,-14.763768c-8.142258,-3.164427 -17.446518,-5.327903 -31.071136,-5.949813c-13.652054,-0.622927 -18.011017,-0.770275 -52.773979,-0.770275zm0,62.270313c-36.301483,0 -65.729946,29.428455 -65.729946,65.729946c0,36.301483 29.428463,65.729935 65.729946,65.729935c36.301476,0 65.729942,-29.428452 65.729942,-65.729935c0,-36.301491 -29.428467,-65.729946 -65.729942,-65.729946zm0,108.396862c-23.564011,0 -42.666924,-19.102921 -42.666924,-42.666916c0,-23.564011 19.102913,-42.666924 42.666924,-42.666924c23.564003,0 42.666924,19.102913 42.666924,42.666924c0,23.563995 -19.102921,42.666916 -42.666924,42.666916zm83.686592,-110.993748c0,8.483189 -6.876587,15.360279 -15.359772,15.360279c-8.483185,0 -15.360275,-6.87709 -15.360275,-15.360279c0,-8.483185 6.87709,-15.359764 15.360275,-15.359764c8.483185,0 15.359772,6.876579 15.359772,15.359764z"/>
  </g>
 </g>
</svg>