<svg width="612" height="612" xmlns="http://www.w3.org/2000/svg">

 <g>
  <title>background</title>
  <rect fill="none" id="canvas_background" height="402" width="582" y="-1" x="-1"/>
 </g>
 <g>
  <title>Layer 1</title>
  <g id="svg_1">
   <g id="svg_2">
    <path id="svg_3" fill="#444452" d="m612,116.258003c-22.525024,9.981003 -46.69397,16.749992 -72.088013,19.771996c25.929016,-15.527 45.777039,-40.154991 55.184021,-69.411003c-24.322021,14.379005 -51.169006,24.82 -79.775024,30.480003c-22.906982,-24.436996 -55.48999,-39.658001 -91.629974,-39.658001c-69.334015,0 -125.551025,56.216999 -125.551025,125.512997c0,9.828003 1.109009,19.427002 3.251007,28.606003c-104.325989,-5.23999 -196.834991,-55.222992 -258.749992,-131.173996c-10.823,18.510002 -16.98,40.078003 -16.98,63.100998c0,43.559006 22.181,81.992996 55.834995,104.479004c-20.574997,-0.688004 -39.925995,-6.348007 -56.866997,-15.755997l0,1.567993c0,60.806015 43.291,111.554001 100.693001,123.103989c-10.516998,2.830017 -21.607002,4.39801 -33.080002,4.39801c-8.107002,0 -15.946999,-0.803009 -23.634003,-2.333008c15.985001,49.907013 62.336006,86.199005 117.252998,87.194c-42.946991,33.653992 -97.098999,53.654999 -155.915998,53.654999c-10.134001,0 -20.115999,-0.612 -29.944,-1.721008c55.566999,35.681 121.536001,56.485016 192.438001,56.485016c230.947998,0 357.188019,-191.291016 357.188019,-357.187988l-0.421021,-16.253006c24.666016,-17.593002 46.005005,-39.697006 62.794006,-64.861z"/>
   </g>
  </g>
  <g id="svg_4"/>
  <g id="svg_5"/>
  <g id="svg_6"/>
  <g id="svg_7"/>
  <g id="svg_8"/>
  <g id="svg_9"/>
  <g id="svg_10"/>
  <g id="svg_11"/>
  <g id="svg_12"/>
  <g id="svg_13"/>
  <g id="svg_14"/>
  <g id="svg_15"/>
  <g id="svg_16"/>
  <g id="svg_17"/>
  <g id="svg_18"/>
 </g>
</svg>